# xmcd
# 
# Track frame offsets:
#     150
#     17617
#     38590
#     55518
#     71238
#     87730
#     105227
#     124069
#     144867
#     165295
#     183151
#     199083
# 
# Disc length: 2897
# 
# Revision: 5
# Processed by: cddbd v1.5.2PL0 Copyright (c) Steve Scherf et al.
# Submitted via: fre:ac v1.0.17
# 
DISCID=910b4f0c
DTITLE=Chris Rea - The Return Of The Fabulous Hofner Blue Notes [CD2]
DYEAR=2008
DGENRE=Blues
TTITLE0=I Can't Wait For Love
TTITLE1=Speak Of God, Act Like The Devil
TTITLE2=Big Wave
TTITLE3=Don't Give Your Ace Away
TTITLE4=Renaissance Blues
TTITLE5=Let's Getaway 
TTITLE6=Legacy Blues
TTITLE7=Don't Tell Me About The Blues
TTITLE8=If I Keep My Faith In You
TTITLE9=The Shadow Of A Fool
TTITLE10=Rock And Roll Tonight
TTITLE11=I Will Be With You
EXTD=
EXTT0=
EXTT1=
EXTT2=
EXTT3=
EXTT4=
EXTT5=
EXTT6=
EXTT7=
EXTT8=
EXTT9=
EXTT10=
EXTT11=
PLAYORDER=
